<?xml version="1.0" encoding="UTF-8"?>
<svg version="1.1" xmlns="http://www.w3.org/2000/svg" width="1280" height="1280">
<path d="M0 0 C422.4 0 844.8 0 1280 0 C1280 422.4 1280 844.8 1280 1280 C857.6 1280 435.2 1280 0 1280 C0 857.6 0 435.2 0 0 Z " fill="#F6F6F6" transform="translate(0,0)"/>
<path d="M0 0 C1.22387421 0.00140488 1.22387421 0.00140488 2.47247314 0.00283813 C15.41795957 0.03493386 28.15842195 0.43029951 41 2.1875 C42.14533203 2.33815918 43.29066406 2.48881836 44.47070312 2.64404297 C104.23476608 10.71544794 160.87183878 35.22487838 207 74.1875 C208.05295223 75.05391213 209.10635719 75.9197743 210.16015625 76.78515625 C223.1225777 87.53968236 235.64468791 99.34308797 246.015625 112.6484375 C248.17382706 115.40991651 250.45723003 118.03694108 252.75 120.6875 C264.41962531 134.70550192 273.90964213 150.41948826 283 166.1875 C283.36931641 166.82010742 283.73863281 167.45271484 284.11914062 168.10449219 C303.54399843 201.6244428 315.19952691 240.87988504 320 279.1875 C320.10296387 279.97318359 320.20592773 280.75886719 320.31201172 281.56835938 C323.49286214 306.75386067 323.17698315 333.02519682 320 358.1875 C319.90348145 359.01717285 319.80696289 359.8468457 319.70751953 360.70166016 C315.20410839 399.11745795 303.2328475 436.09596169 285 470.1875 C284.42813965 471.26523682 284.42813965 471.26523682 283.84472656 472.36474609 C265.66078072 506.45414981 240.18201839 539.93377629 209.7109375 564.03125 C206.9295144 566.24356347 204.25323146 568.55358462 201.5625 570.875 C146.51729079 616.62778342 73.17653205 640.47039576 2.125 640.375 C1.35953857 640.37472809 0.59407715 640.37445618 -0.19458008 640.37417603 C-42.04077908 640.30614493 -82.24765579 631.97039076 -121 616.1875 C-121.69464355 615.90970703 -122.38928711 615.63191406 -123.10498047 615.34570312 C-154.91570883 602.54315661 -184.53941147 583.01857815 -210 560.1875 C-210.51079102 559.73310547 -211.02158203 559.27871094 -211.54785156 558.81054688 C-222.33481969 549.19291654 -232.86354978 539.25711125 -241.83984375 527.90234375 C-244.07216068 525.09680981 -246.40605484 522.40015564 -248.75 519.6875 C-263.61708744 501.82858381 -276.14853593 481.25237603 -286.03027344 460.2421875 C-286.68860797 458.84728734 -287.35627 457.45675887 -288.03222656 456.0703125 C-304.38794504 422.49254526 -312.61320023 387.14071161 -317 350.1875 C-317.10530029 349.40238037 -317.21060059 348.61726074 -317.3190918 347.80834961 C-318.40702643 338.88148327 -318.19861051 329.85300821 -318.1875 320.875 C-318.18689575 319.97911163 -318.1862915 319.08322327 -318.18566895 318.16018677 C-318.16166913 305.07721388 -317.9569237 292.14785104 -316 279.1875 C-315.86577637 278.2893457 -315.73155273 277.39119141 -315.59326172 276.46582031 C-314.54797702 269.67552129 -313.31839917 262.92960483 -312 256.1875 C-311.83161621 255.30545898 -311.66323242 254.42341797 -311.48974609 253.51464844 C-300.96236326 199.43438266 -274.13892794 148.10891069 -237.1015625 107.5078125 C-235.27717206 105.49352269 -233.50906198 103.44601386 -231.75 101.375 C-224.19492966 92.71044381 -215.85388759 84.51588669 -207 77.1875 C-206.21496094 76.52379395 -206.21496094 76.52379395 -205.4140625 75.84667969 C-188.78254538 61.80248919 -170.83968392 50.04869619 -152 39.1875 C-151.36739258 38.81818359 -150.73478516 38.44886719 -150.08300781 38.06835938 C-105.18998284 12.05278922 -51.54585019 -0.07697731 0 0 Z " fill="#F6F6F6" transform="translate(638,319.8125)"/>
<path d="M0 0 C1.22387421 0.00140488 1.22387421 0.00140488 2.47247314 0.00283813 C15.41795957 0.03493386 28.15842195 0.43029951 41 2.1875 C42.14533203 2.33815918 43.29066406 2.48881836 44.47070312 2.64404297 C104.23476608 10.71544794 160.87183878 35.22487838 207 74.1875 C208.05295223 75.05391213 209.10635719 75.9197743 210.16015625 76.78515625 C223.1225777 87.53968236 235.64468791 99.34308797 246.015625 112.6484375 C248.17382706 115.40991651 250.45723003 118.03694108 252.75 120.6875 C264.41962531 134.70550192 273.90964213 150.41948826 283 166.1875 C283.36931641 166.82010742 283.73863281 167.45271484 284.11914062 168.10449219 C303.54399843 201.6244428 315.19952691 240.87988504 320 279.1875 C320.10296387 279.97318359 320.20592773 280.75886719 320.31201172 281.56835938 C323.49286214 306.75386067 323.17698315 333.02519682 320 358.1875 C319.90348145 359.01717285 319.80696289 359.8468457 319.70751953 360.70166016 C315.20410839 399.11745795 303.2328475 436.09596169 285 470.1875 C284.42813965 471.26523682 284.42813965 471.26523682 283.84472656 472.36474609 C265.66078072 506.45414981 240.18201839 539.93377629 209.7109375 564.03125 C206.9295144 566.24356347 204.25323146 568.55358462 201.5625 570.875 C146.51729079 616.62778342 73.17653205 640.47039576 2.125 640.375 C1.35953857 640.37472809 0.59407715 640.37445618 -0.19458008 640.37417603 C-42.04077908 640.30614493 -82.24765579 631.97039076 -121 616.1875 C-121.69464355 615.90970703 -122.38928711 615.63191406 -123.10498047 615.34570312 C-154.91570883 602.54315661 -184.53941147 583.01857815 -210 560.1875 C-210.51079102 559.73310547 -211.02158203 559.27871094 -211.54785156 558.81054688 C-222.33481969 549.19291654 -232.86354978 539.25711125 -241.83984375 527.90234375 C-244.07216068 525.09680981 -246.40605484 522.40015564 -248.75 519.6875 C-263.61708744 501.82858381 -276.14853593 481.25237603 -286.03027344 460.2421875 C-286.68860797 458.84728734 -287.35627 457.45675887 -288.03222656 456.0703125 C-304.38794504 422.49254526 -312.61320023 387.14071161 -317 350.1875 C-317.10530029 349.40238037 -317.21060059 348.61726074 -317.3190918 347.80834961 C-318.40702643 338.88148327 -318.19861051 329.85300821 -318.1875 320.875 C-318.18689575 319.97911163 -318.1862915 319.08322327 -318.18566895 318.16018677 C-318.16166913 305.07721388 -317.9569237 292.14785104 -316 279.1875 C-315.86577637 278.2893457 -315.73155273 277.39119141 -315.59326172 276.46582031 C-314.54797702 269.67552129 -313.31839917 262.92960483 -312 256.1875 C-311.83161621 255.30545898 -311.66323242 254.42341797 -311.48974609 253.51464844 C-300.96236326 199.43438266 -274.13892794 148.10891069 -237.1015625 107.5078125 C-235.27717206 105.49352269 -233.50906198 103.44601386 -231.75 101.375 C-224.19492966 92.71044381 -215.85388759 84.51588669 -207 77.1875 C-206.21496094 76.52379395 -206.21496094 76.52379395 -205.4140625 75.84667969 C-188.78254538 61.80248919 -170.83968392 50.04869619 -152 39.1875 C-151.36739258 38.81818359 -150.73478516 38.44886719 -150.08300781 38.06835938 C-105.18998284 12.05278922 -51.54585019 -0.07697731 0 0 Z M-51 43.1875 C-52.23878906 43.43757813 -53.47757813 43.68765625 -54.75390625 43.9453125 C-57.86447681 44.60940977 -60.92429878 45.37790583 -64 46.1875 C-65.46459434 46.55048698 -66.92946137 46.91237468 -68.39453125 47.2734375 C-129.79701352 62.63501274 -184.93205076 99.67371938 -223 150.1875 C-223.41604492 150.73599609 -223.83208984 151.28449219 -224.26074219 151.84960938 C-231.9970063 162.11963802 -238.59249045 173.0514048 -245 184.1875 C-245.38961914 184.86458008 -245.77923828 185.54166016 -246.18066406 186.23925781 C-261.0901978 212.44921784 -271.16334388 242.47630763 -276 272.1875 C-276.18422012 273.24514557 -276.18422012 273.24514557 -276.37216187 274.32415771 C-278.92916958 289.14715124 -279.52025212 303.66415313 -279.4375 318.6875 C-279.43512329 319.82548035 -279.43274658 320.96346069 -279.43029785 322.13592529 C-279.37260554 339.81489572 -278.47042088 356.81387835 -275 374.1875 C-274.84515137 375.02603516 -274.69030273 375.86457031 -274.53076172 376.72851562 C-273.56486473 381.94414543 -272.37667529 387.06565217 -271 392.1875 C-270.77505859 393.03344727 -270.55011719 393.87939453 -270.31835938 394.75097656 C-263.74254898 418.96349216 -253.65949225 441.56503505 -241 463.1875 C-240.5683252 463.92677734 -240.13665039 464.66605469 -239.69189453 465.42773438 C-230.63411354 480.7775077 -219.78879815 494.8450432 -208 508.1875 C-207.53126465 508.71939941 -207.0625293 509.25129883 -206.57958984 509.79931641 C-194.89221734 522.97381313 -182.09019375 534.63382513 -168 545.1875 C-167.4544043 545.60064453 -166.90880859 546.01378906 -166.34667969 546.43945312 C-156.07011534 554.18215414 -145.12842023 560.75074709 -134 567.1875 C-133.36545898 567.56116699 -132.73091797 567.93483398 -132.07714844 568.31982422 C-108.80552859 581.95258189 -82.27966167 590.5671052 -56 596.1875 C-54.72382812 596.46464844 -53.44765625 596.74179687 -52.1328125 597.02734375 C-34.92667941 600.62238819 -18.46571791 601.59066482 -0.9375 601.5625 C0.21385437 601.56262085 1.36520874 601.5627417 2.55145264 601.56286621 C20.72169049 601.53571299 38.12887177 600.58887881 56 597.1875 C57.58064234 596.91875963 59.16136368 596.65048323 60.7421875 596.3828125 C103.01498469 588.61113231 143.42050196 567.42959943 177 541.1875 C177.96421875 540.43855469 178.9284375 539.68960937 179.921875 538.91796875 C232.39294065 497.08083209 264.80619625 438.15054561 279 373.1875 C279.17692383 372.44725586 279.35384766 371.70701172 279.53613281 370.94433594 C283.19377856 354.70154794 283.37308758 337.82927409 283.37060547 321.26245117 C283.37497288 318.02013315 283.41144886 314.77918835 283.44921875 311.53710938 C283.55184326 292.04489504 280.8949417 273.05149701 276 254.1875 C275.6605237 252.78017304 275.3220623 251.37260105 274.984375 249.96484375 C264.19843579 205.97176383 242.08740325 164.84347791 211.27734375 131.6484375 C209.24097846 129.44790554 207.26738147 127.21021297 205.3125 124.9375 C199.68433224 118.48088699 193.5431224 112.70444948 187 107.1875 C186.47857422 106.74164551 185.95714844 106.29579102 185.41992188 105.83642578 C158.18658877 82.64245019 126.78686605 64.86710992 93 53.1875 C92.29117676 52.9390332 91.58235352 52.69056641 90.85205078 52.43457031 C81.47157197 49.18344016 72.02095064 46.57890247 62.3125 44.5 C61.44302734 44.30978271 60.57355469 44.11956543 59.67773438 43.92358398 C40.11069505 39.93969867 20.55189814 38.63866087 0.625 38.75 C-0.48498352 38.75204437 -1.59496704 38.75408875 -2.73858643 38.75619507 C-19.15532841 38.80536821 -34.93386489 39.54635131 -51 43.1875 Z " fill="#4D4D4D" transform="translate(638,319.8125)"/>
<path d="M0 0 C14.52 0 29.04 0 44 0 C44 43.23 44 86.46 44 131 C87.23 131 130.46 131 175 131 C175 145.52 175 160.04 175 175 C131.77 175 88.54 175 44 175 C44 218.23 44 261.46 44 306 C29.48 306 14.96 306 0 306 C0 262.77 0 219.54 0 175 C-43.23 175 -86.46 175 -131 175 C-131 160.48 -131 145.96 -131 131 C-87.77 131 -44.54 131 0 131 C0 87.77 0 44.54 0 0 Z " fill="#0472E0" transform="translate(618,487)"/>
</svg>
